<?xml version="1.0" standalone="no"?>
<!DOCTYPE svg PUBLIC "-//W3C//DTD SVG 20010904//EN"
 "http://www.w3.org/TR/2001/REC-SVG-20010904/DTD/svg10.dtd">
<svg version="1.0" xmlns="http://www.w3.org/2000/svg"
 width="448.000000pt" height="557.000000pt" viewBox="0 0 448.000000 557.000000"
 preserveAspectRatio="xMidYMid meet">

<g transform="translate(0.000000,557.000000) scale(0.100000,-0.100000)"
fill="#000000" stroke="none">
<path d="M1370 5554 c-107 -28 -217 -129 -257 -234 -13 -35 -17 -90 -21 -247
l-4 -202 -406 -3 -407 -3 -57 -28 c-67 -33 -140 -102 -170 -161 -39 -76 -48
-133 -48 -313 l0 -173 2240 0 2240 0 0 168 c0 182 -12 255 -55 327 -34 59
-102 122 -165 153 l-55 27 -355 5 -355 5 -5 205 c-5 200 -6 207 -34 267 -31
69 -107 148 -172 181 -81 41 -112 42 -1002 41 -716 0 -866 -3 -912 -15z m1780
-509 l0 -175 -860 0 -860 0 0 175 0 175 860 0 860 0 0 -175z"/>
<path d="M350 2083 c0 -1893 -2 -1801 54 -1897 36 -61 117 -131 184 -158 l57
-23 1600 0 1600 0 57 23 c81 33 160 108 200 190 l33 67 3 1772 2 1773 -1895 0
-1895 0 0 -1747z m1030 -153 l0 -1230 -170 0 -170 0 0 1230 0 1230 170 0 170
0 0 -1230z m690 0 l0 -1230 -175 0 -175 0 0 1230 0 1230 175 0 175 0 0 -1230z
m685 0 l0 -1225 -172 -3 -173 -2 0 1230 0 1230 173 -2 172 -3 0 -1225z m685 0
l0 -1230 -170 0 -170 0 0 1230 0 1230 170 0 170 0 0 -1230z"/>
</g>
</svg>
