<?xml version="1.0" standalone="no"?>
<!DOCTYPE svg PUBLIC "-//W3C//DTD SVG 20010904//EN"
 "http://www.w3.org/TR/2001/REC-SVG-20010904/DTD/svg10.dtd">
<svg version="1.0" xmlns="http://www.w3.org/2000/svg"
 width="499.000000pt" height="499.000000pt" viewBox="0 0 499.000000 499.000000"
 preserveAspectRatio="xMidYMid meet">

<g transform="translate(0.000000,499.000000) scale(0.100000,-0.100000)"
fill="#000000" stroke="none">
<path d="M4214 4955 c-31 -15 -93 -69 -168 -144 l-119 -119 380 -383 381 -383
111 103 c61 57 124 124 141 149 53 79 61 154 25 222 -22 40 -422 440 -513 513
-79 63 -87 67 -136 67 -35 0 -68 -8 -102 -25z"/>
<path d="M905 4820 c-274 -8 -301 -12 -433 -75 -223 -106 -386 -304 -443 -540
-18 -77 -19 -136 -19 -1782 0 -1842 -2 -1776 53 -1913 42 -103 88 -171 182
-266 104 -105 187 -158 326 -206 l94 -33 1738 -3 c1956 -3 1782 -10 1962 78
169 82 305 215 384 375 81 164 75 35 78 1560 l3 1360 -240 -242 -240 -241 0
-1000 c0 -969 -1 -1002 -20 -1064 -37 -122 -126 -230 -239 -291 -106 -58 -53
-57 -1672 -57 -970 0 -1505 4 -1540 10 -185 35 -344 196 -385 389 -11 55 -14
312 -14 1532 0 1003 3 1484 11 1525 27 152 132 290 272 359 67 33 88 38 184
46 59 4 524 8 1032 8 l924 1 234 232 c128 128 233 236 233 240 0 9 -2095 7
-2465 -2z"/>
<path d="M2952 3722 l-844 -837 380 -379 c209 -208 385 -377 391 -375 6 2 389
379 852 838 l841 834 -379 379 c-208 208 -382 378 -388 378 -5 0 -389 -377
-853 -838z"/>
<path d="M1995 2759 c-21 -58 -295 -1027 -293 -1035 2 -8 151 30 423 106 463
131 627 181 626 193 0 4 -169 175 -376 378 -233 231 -377 366 -380 358z"/>
</g>
</svg>
